<svg width="152" height="36" viewBox="0 0 152 36" fill="none" xmlns="http://www.w3.org/2000/svg">
<path d="M16.1562 8.69602C16.0199 7.48579 15.4574 6.54829 14.4688 5.88352C13.4801 5.21023 12.2358 4.87358 10.7358 4.87358C9.66193 4.87358 8.73295 5.04403 7.94886 5.38494C7.16477 5.71733 6.5554 6.17756 6.12074 6.76562C5.6946 7.34517 5.48153 8.00568 5.48153 8.74716C5.48153 9.36932 5.62642 9.90625 5.91619 10.358C6.21449 10.8097 6.60227 11.1889 7.07955 11.4957C7.56534 11.794 8.08523 12.0455 8.6392 12.25C9.19318 12.446 9.72585 12.608 10.2372 12.7358L12.794 13.4006C13.6293 13.6051 14.4858 13.8821 15.3636 14.2315C16.2415 14.581 17.0554 15.0412 17.8054 15.6122C18.5554 16.1832 19.1605 16.8906 19.6207 17.7344C20.0895 18.5781 20.3239 19.5881 20.3239 20.7642C20.3239 22.2472 19.9403 23.5639 19.1733 24.7145C18.4148 25.8651 17.3111 26.7727 15.8622 27.4375C14.4219 28.1023 12.679 28.4347 10.6335 28.4347C8.6733 28.4347 6.97727 28.1236 5.54545 27.5014C4.11364 26.8793 2.9929 25.9972 2.18324 24.8551C1.37358 23.7045 0.926136 22.3409 0.840909 20.7642H4.80398C4.88068 21.7102 5.1875 22.4986 5.72443 23.1293C6.26989 23.7514 6.96449 24.2159 7.80824 24.5227C8.66051 24.821 9.59375 24.9702 10.608 24.9702C11.7244 24.9702 12.7173 24.7955 13.5866 24.446C14.4645 24.0881 15.1548 23.5937 15.6577 22.9631C16.1605 22.3239 16.4119 21.5781 16.4119 20.7259C16.4119 19.9503 16.1903 19.3153 15.7472 18.821C15.3125 18.3267 14.7202 17.9176 13.9702 17.5938C13.2287 17.2699 12.3892 16.9844 11.4517 16.7372L8.35795 15.8935C6.26136 15.3224 4.59943 14.483 3.37216 13.375C2.15341 12.267 1.54403 10.8011 1.54403 8.97727C1.54403 7.46875 1.95313 6.15199 2.77131 5.02699C3.58949 3.90199 4.69744 3.02841 6.09517 2.40625C7.4929 1.77557 9.0696 1.46023 10.8253 1.46023C12.598 1.46023 14.1619 1.77131 15.517 2.39347C16.8807 3.01563 17.9545 3.87216 18.7386 4.96307C19.5227 6.04545 19.9318 7.28977 19.9659 8.69602H16.1562ZM28.56 16.3409V28H24.7376V1.81818H28.5089V11.5597H28.7518C29.212 10.5028 29.9151 9.66335 30.8612 9.04119C31.8072 8.41903 33.043 8.10795 34.5685 8.10795C35.9151 8.10795 37.0913 8.38494 38.0969 8.93892C39.1112 9.4929 39.8952 10.3196 40.4492 11.419C41.0117 12.5099 41.293 13.8736 41.293 15.5099V28H37.4705V15.9702C37.4705 14.5298 37.0998 13.4134 36.3583 12.6207C35.6168 11.8196 34.5856 11.419 33.2646 11.419C32.3612 11.419 31.5515 11.6108 30.8356 11.9943C30.1282 12.3778 29.57 12.9403 29.1609 13.6818C28.7603 14.4148 28.56 15.3011 28.56 16.3409ZM46.3938 28V8.36364H50.2163V28H46.3938ZM48.3242 5.33381C47.6594 5.33381 47.0884 5.11221 46.6112 4.66903C46.1424 4.21733 45.908 3.6804 45.908 3.05824C45.908 2.42756 46.1424 1.89062 46.6112 1.44744C47.0884 0.995738 47.6594 0.769886 48.3242 0.769886C48.989 0.769886 49.5558 0.995738 50.0245 1.44744C50.5018 1.89062 50.7404 2.42756 50.7404 3.05824C50.7404 3.6804 50.5018 4.21733 50.0245 4.66903C49.5558 5.11221 48.989 5.33381 48.3242 5.33381ZM55.3587 35.3636V8.36364H59.0916V11.5469H59.4112C59.6328 11.1378 59.9524 10.6648 60.37 10.1278C60.7876 9.59091 61.3672 9.12216 62.1087 8.72159C62.8501 8.3125 63.8303 8.10795 65.049 8.10795C66.6342 8.10795 68.049 8.50852 69.2933 9.30966C70.5376 10.1108 71.5135 11.2656 72.2209 12.7741C72.9368 14.2827 73.2947 16.098 73.2947 18.2202C73.2947 20.3423 72.9411 22.1619 72.2337 23.679C71.5263 25.1875 70.5547 26.3509 69.3189 27.169C68.0831 27.9787 66.6726 28.3835 65.0874 28.3835C63.8942 28.3835 62.9183 28.1832 62.1598 27.7827C61.4098 27.3821 60.8217 26.9134 60.3956 26.3764C59.9695 25.8395 59.6413 25.3622 59.4112 24.9446H59.1811V35.3636H55.3587ZM59.1044 18.1818C59.1044 19.5625 59.3047 20.7727 59.7053 21.8125C60.1058 22.8523 60.6854 23.6662 61.4439 24.2543C62.2024 24.8338 63.1314 25.1236 64.2308 25.1236C65.3729 25.1236 66.3274 24.821 67.0945 24.2159C67.8615 23.6023 68.4411 22.7713 68.8331 21.723C69.2337 20.6747 69.4339 19.4943 69.4339 18.1818C69.4339 16.8864 69.2379 15.723 68.8459 14.6918C68.4624 13.6605 67.8828 12.8466 67.1072 12.25C66.3402 11.6534 65.3814 11.3551 64.2308 11.3551C63.1229 11.3551 62.1854 11.6406 61.4183 12.2116C60.6598 12.7827 60.0845 13.5795 59.6925 14.6023C59.3004 15.625 59.1044 16.8182 59.1044 18.1818ZM83.2919 28.4347C82.0476 28.4347 80.9226 28.2045 79.9169 27.7443C78.9112 27.2756 78.1143 26.598 77.5263 25.7116C76.9467 24.8253 76.657 23.7386 76.657 22.4517C76.657 21.3437 76.87 20.4318 77.2962 19.7159C77.7223 19 78.2976 18.4332 79.022 18.0156C79.7464 17.598 80.5561 17.2827 81.451 17.0696C82.3459 16.8565 83.2578 16.6946 84.1868 16.5838C85.3629 16.4474 86.3175 16.3366 87.0504 16.2514C87.7834 16.1577 88.3161 16.0085 88.6484 15.804C88.9808 15.5994 89.147 15.267 89.147 14.8068V14.7173C89.147 13.6009 88.8317 12.7358 88.201 12.1222C87.5788 11.5085 86.6499 11.2017 85.4141 11.2017C84.1271 11.2017 83.1129 11.4872 82.3714 12.0582C81.6385 12.6207 81.1314 13.2472 80.8501 13.9375L77.2578 13.1193C77.6839 11.9261 78.3061 10.9631 79.1243 10.2301C79.951 9.48864 80.9013 8.9517 81.9751 8.61932C83.049 8.27841 84.1783 8.10795 85.3629 8.10795C86.147 8.10795 86.978 8.2017 87.8558 8.3892C88.7422 8.56818 89.5689 8.90057 90.3359 9.38636C91.1115 9.87216 91.7464 10.5668 92.2408 11.4702C92.7351 12.3651 92.9822 13.5284 92.9822 14.9602V28H89.2493V25.3153H89.0959C88.8487 25.8097 88.478 26.2955 87.9837 26.7727C87.4893 27.25 86.8544 27.6463 86.0788 27.9616C85.3033 28.277 84.3743 28.4347 83.2919 28.4347ZM84.1229 25.3665C85.1797 25.3665 86.0831 25.1577 86.8331 24.7401C87.5916 24.3224 88.1669 23.777 88.5589 23.1037C88.9595 22.4219 89.1598 21.6932 89.1598 20.9176V18.3864C89.0234 18.5227 88.7592 18.6506 88.3672 18.7699C87.9837 18.8807 87.5447 18.9787 87.0504 19.0639C86.5561 19.1406 86.0746 19.2131 85.6058 19.2812C85.1371 19.3409 84.745 19.392 84.4297 19.4347C83.6882 19.5284 83.0107 19.6861 82.397 19.9077C81.7919 20.1293 81.3061 20.4489 80.9396 20.8665C80.5817 21.2756 80.4027 21.821 80.4027 22.5028C80.4027 23.4489 80.7521 24.1648 81.451 24.6506C82.1499 25.1278 83.0405 25.3665 84.1229 25.3665ZM106.306 35.7727C104.747 35.7727 103.404 35.5682 102.279 35.1591C101.163 34.75 100.251 34.2088 99.5437 33.5355C98.8363 32.8622 98.3079 32.125 97.9585 31.3239L101.244 29.9688C101.474 30.3438 101.781 30.7401 102.164 31.1577C102.556 31.5838 103.085 31.946 103.75 32.2443C104.423 32.5426 105.288 32.6918 106.345 32.6918C107.794 32.6918 108.991 32.3381 109.937 31.6307C110.883 30.9318 111.356 29.8153 111.356 28.2812V24.4205H111.113C110.883 24.8381 110.551 25.3026 110.116 25.8139C109.69 26.3253 109.102 26.7685 108.352 27.1435C107.602 27.5185 106.626 27.706 105.424 27.706C103.873 27.706 102.475 27.3437 101.231 26.6193C99.9954 25.8864 99.0153 24.8082 98.2908 23.3849C97.5749 21.9531 97.217 20.1932 97.217 18.1051C97.217 16.017 97.5707 14.2273 98.2781 12.7358C98.994 11.2443 99.9741 10.1023 101.218 9.30966C102.463 8.50852 103.873 8.10795 105.45 8.10795C106.669 8.10795 107.653 8.3125 108.403 8.72159C109.153 9.12216 109.737 9.59091 110.154 10.1278C110.581 10.6648 110.909 11.1378 111.139 11.5469H111.42V8.36364H115.166V28.4347C115.166 30.1222 114.774 31.5071 113.99 32.5895C113.206 33.6719 112.145 34.473 110.806 34.9929C109.477 35.5128 107.977 35.7727 106.306 35.7727ZM106.268 24.5355C107.368 24.5355 108.297 24.2798 109.055 23.7685C109.822 23.2486 110.402 22.5071 110.794 21.544C111.194 20.5724 111.395 19.4091 111.395 18.054C111.395 16.733 111.199 15.5696 110.806 14.5639C110.414 13.5582 109.839 12.7741 109.081 12.2116C108.322 11.6406 107.385 11.3551 106.268 11.3551C105.118 11.3551 104.159 11.6534 103.392 12.25C102.625 12.8381 102.045 13.6392 101.653 14.6534C101.27 15.6676 101.078 16.8011 101.078 18.054C101.078 19.3409 101.274 20.4702 101.666 21.4418C102.058 22.4134 102.637 23.1719 103.404 23.7173C104.18 24.2628 105.135 24.5355 106.268 24.5355ZM128.755 28.3963C126.821 28.3963 125.154 27.983 123.757 27.1562C122.368 26.321 121.294 25.1491 120.535 23.6406C119.785 22.1236 119.41 20.3466 119.41 18.3097C119.41 16.2983 119.785 14.5256 120.535 12.9915C121.294 11.4574 122.35 10.2599 123.706 9.39915C125.069 8.53835 126.663 8.10795 128.487 8.10795C129.595 8.10795 130.669 8.29119 131.708 8.65767C132.748 9.02415 133.681 9.59943 134.508 10.3835C135.335 11.1676 135.987 12.1861 136.464 13.4389C136.941 14.6832 137.18 16.196 137.18 17.9773V19.3324H121.571V16.4688H133.434C133.434 15.4631 133.23 14.5724 132.821 13.7969C132.412 13.0128 131.836 12.3949 131.095 11.9432C130.362 11.4915 129.501 11.2656 128.512 11.2656C127.439 11.2656 126.501 11.5298 125.7 12.0582C124.907 12.5781 124.294 13.2599 123.859 14.1037C123.433 14.9389 123.22 15.8466 123.22 16.8267V19.0639C123.22 20.3764 123.45 21.4929 123.91 22.4134C124.379 23.3338 125.031 24.0369 125.866 24.5227C126.701 25 127.677 25.2386 128.794 25.2386C129.518 25.2386 130.179 25.1364 130.775 24.9318C131.372 24.7187 131.887 24.4034 132.322 23.9858C132.757 23.5682 133.089 23.0526 133.319 22.4389L136.937 23.0909C136.647 24.1562 136.127 25.0895 135.377 25.8906C134.636 26.6832 133.703 27.3011 132.578 27.7443C131.461 28.179 130.187 28.3963 128.755 28.3963ZM141.421 28V8.36364H145.116V11.483H145.32C145.678 10.4261 146.309 9.59517 147.212 8.99006C148.124 8.37642 149.156 8.0696 150.306 8.0696C150.545 8.0696 150.826 8.07812 151.15 8.09517C151.482 8.11221 151.742 8.13352 151.93 8.15909V11.8153C151.776 11.7727 151.504 11.7259 151.112 11.6747C150.719 11.6151 150.327 11.5852 149.935 11.5852C149.032 11.5852 148.227 11.777 147.519 12.1605C146.82 12.5355 146.266 13.0597 145.857 13.733C145.448 14.3977 145.244 15.1562 145.244 16.0085V28H141.421Z" fill="#5F6FFF"/>
</svg>
