<?xml version="1.0" encoding="UTF-8"?>
<svg width="24" height="24" viewBox="0 0 24 24" fill="none" xmlns="http://www.w3.org/2000/svg">
    <path d="M12 2C6.48 2 2 6.48 2 12C2 17.52 6.48 22 12 22C17.52 22 22 17.52 22 12C22 6.48 17.52 2 12 2ZM16.64 8.8C16.49 10.19 15.84 14.51 15.51 16.45C15.37 17.25 15.09 17.52 14.83 17.55C14.25 17.61 13.81 17.18 13.25 16.81C12.37 16.22 11.87 15.85 11.02 15.27C10.03 14.58 10.67 14.2 11.24 13.61C11.39 13.45 13.97 11.12 14.03 10.89C14.0408 10.8541 14.0408 10.8159 14.03 10.78C14.0192 10.7441 13.9978 10.7127 13.97 10.69C13.91 10.65 13.83 10.66 13.76 10.67C13.67 10.68 12.23 11.62 9.43 13.47C9 13.77 8.61 13.91 8.25 13.9C7.85 13.89 7.09 13.68 6.52 13.49C5.82 13.27 5.27 13.15 5.32 12.75C5.35 12.54 5.62 12.33 6.14 12.12C9.14 10.81 11.12 9.93 12.08 9.48C14.86 8.17 15.45 7.95 15.83 7.95C15.91 7.95 16.09 7.97 16.21 8.07C16.3 8.15 16.33 8.26 16.34 8.34C16.34 8.41 16.35 8.61 16.34 8.76L16.64 8.8Z" fill="#0088CC"/>
</svg> 