<?xml version="1.0" encoding="UTF-8"?>
<svg width="24" height="24" viewBox="0 0 24 24" fill="none" xmlns="http://www.w3.org/2000/svg">
    <path d="M20.9999 7.79995C21.0999 7.49995 20.9999 7.29995 20.5999 7.29995H18.5999C18.1999 7.29995 17.9999 7.49995 17.8999 7.69995C17.8999 7.69995 16.8999 10.2 15.4999 11.8C15.0999 12.2 14.8999 12.3 14.6999 12.3C14.5999 12.3 14.3999 12.2 14.3999 11.9V7.79995C14.3999 7.39995 14.1999 7.29995 13.8999 7.29995H10.8999C10.6999 7.29995 10.4999 7.39995 10.4999 7.59995C10.4999 7.99995 11.0999 8.09995 11.0999 9.49995V12.4C11.0999 12.9 10.9999 13 10.7999 13C10.1999 13 8.99994 10.5 7.99994 7.89995C7.79994 7.39995 7.69994 7.29995 7.29994 7.29995H5.29994C4.79994 7.29995 4.69994 7.49995 4.69994 7.69995C4.69994 8.09995 5.29994 10.6 7.79994 13.9C9.49994 16.2 11.8999 17.3 14.0999 17.3C15.3999 17.3 15.5999 17.1 15.5999 16.7V14.9C15.5999 14.4 15.6999 14.3 16.0999 14.3C16.3999 14.3 16.8999 14.4 17.9999 15.5C19.2999 16.8 19.4999 17.3 20.0999 17.3H22.0999C22.5999 17.3 22.7999 17.1 22.6999 16.7C22.5999 16.3 21.8999 15.5 21.0999 14.6C20.6999 14.1 20.0999 13.6 19.8999 13.3C19.5999 13 19.6999 12.9 19.8999 12.6C19.8999 12.6 22.3999 9.09995 20.9999 7.79995Z" fill="#4C75A3"/>
</svg> 