<?xml version="1.0" encoding="UTF-8"?>
<svg width="24" height="24" viewBox="0 0 24 24" fill="none" xmlns="http://www.w3.org/2000/svg">
    <path d="M22.0617 6.93984C21.9422 6.49462 21.7078 6.09011 21.3843 5.76661C21.0608 5.44311 20.6563 5.20872 20.2111 5.08922C18.6711 4.64922 12.0011 4.64922 12.0011 4.64922C12.0011 4.64922 5.33109 4.64922 3.79109 5.08922C3.34586 5.20872 2.94135 5.44311 2.61785 5.76661C2.29435 6.09011 2.05997 6.49462 1.94047 6.93984C1.63938 8.50485 1.49329 10.0999 1.50422 11.6992C1.49329 13.2986 1.63938 14.8936 1.94047 16.4586C2.05997 16.9039 2.29435 17.3084 2.61785 17.6319C2.94135 17.9554 3.34586 18.1898 3.79109 18.3092C5.33109 18.7492 12.0011 18.7492 12.0011 18.7492C12.0011 18.7492 18.6711 18.7492 20.2111 18.3092C20.6563 18.1898 21.0608 17.9554 21.3843 17.6319C21.7078 17.3084 21.9422 16.9039 22.0617 16.4586C22.3628 14.8936 22.5089 13.2986 22.498 11.6992C22.5089 10.0999 22.3628 8.50485 22.0617 6.93984ZM9.90109 14.7492V8.64922L15.5011 11.6992L9.90109 14.7492Z" fill="#FF0000"/>
</svg> 